<svg width="197" height="20" viewBox="0 0 197 20" fill="none" xmlns="http://www.w3.org/2000/svg">
<g clip-path="url(#clip0_3429_28367)">
<path d="M161.384 8.47396C161.384 9.50853 161.384 10.4445 161.384 11.3805C161.384 13.893 161.384 16.3561 161.384 18.8686C161.384 19.0656 161.384 19.2627 161.336 19.4105C161.288 19.509 161.142 19.6568 161.045 19.6568C159.735 19.6568 158.425 19.6568 157.115 19.6568C156.873 19.6568 156.825 19.509 156.825 19.2627C156.825 14.6319 156.825 10.0504 156.825 5.41965C156.825 3.69542 156.825 1.97119 156.825 0.197704C156.97 0.197704 157.067 0.148438 157.164 0.148438C158.328 0.148438 159.492 0.148438 160.608 0.148438C160.802 0.148438 161.045 0.246965 161.142 0.394756C163.664 3.79394 166.138 7.19311 168.612 10.5923C168.854 10.9372 169.097 11.282 169.34 11.5776C169.388 11.5776 169.388 11.5283 169.437 11.5283C169.437 7.73501 169.437 3.94173 169.437 0.148438C169.582 0.148438 169.728 0.148438 169.873 0.148438C171.086 0.148438 172.25 0.148438 173.463 0.148438C173.997 0.148438 173.996 0.148441 173.996 0.69034C173.996 4.28658 173.996 7.88283 173.996 11.479C173.996 13.9915 173.996 16.504 173.996 19.0656C173.996 19.5583 173.997 19.6075 173.463 19.6075C172.25 19.6075 171.086 19.6075 169.873 19.6075C169.679 19.6075 169.388 19.4597 169.291 19.312C166.768 15.8635 164.246 12.3658 161.724 8.86811C161.675 8.76959 161.578 8.67107 161.384 8.47396Z" fill="#0980D8"/>
<path d="M179.284 19.6545C179.284 13.1516 179.284 6.6981 179.284 0.195312C179.429 0.195312 179.574 0.195312 179.672 0.195312C182.049 0.195312 184.377 0.195312 186.754 0.195312C189.179 0.195312 191.459 0.737205 193.399 2.36291C195.388 4.03787 196.552 6.20547 196.892 8.81642C197.474 13.5457 194.321 18.3243 189.13 19.3588C188.306 19.5066 187.482 19.6052 186.609 19.6052C184.329 19.6545 182.097 19.6052 179.817 19.6052C179.623 19.6545 179.477 19.6545 179.284 19.6545ZM183.795 9.94952C183.795 11.6245 183.795 13.2502 183.795 14.9251C183.795 15.0237 183.94 15.2207 183.989 15.2207C185.444 15.1714 186.948 15.3192 188.355 15.0237C191.265 14.4325 193.012 12.0186 192.429 8.96424C191.993 6.69811 190.198 5.02314 187.918 4.82609C186.706 4.72756 185.444 4.77683 184.183 4.72756C183.843 4.72756 183.795 4.82609 183.795 5.17094C183.795 6.69811 183.795 8.32382 183.795 9.94952Z" fill="#0980D8"/>
<path d="M31.918 12.2664C33.3732 14.6803 34.7799 17.0942 36.1867 19.5574C35.9441 19.5574 35.8471 19.6067 35.7015 19.6067C34.2948 19.6067 32.9366 19.6067 31.5299 19.6067C31.2388 19.6067 31.0448 19.5082 30.8993 19.2126C29.8806 17.2913 28.8135 15.4193 27.7463 13.498C27.6978 13.3995 27.5523 13.2517 27.4553 13.2517C26.7761 13.2517 26.0485 13.2517 25.3209 13.2517C25.3209 13.498 25.3209 13.6951 25.3209 13.8921C25.3209 15.6163 25.3209 17.3898 25.3209 19.114C25.3209 19.5082 25.2239 19.6067 24.8359 19.6067C23.5747 19.6067 22.362 19.6067 21.1008 19.6067C20.8582 19.6067 20.7612 19.5082 20.7612 19.2618C20.7612 13.2517 20.7612 7.29076 20.7612 1.28063C20.7612 0.935785 20.7612 0.640202 20.7612 0.246094C20.9068 0.246094 21.0038 0.246094 21.1493 0.246094C23.8657 0.246094 26.5821 0.246094 29.2501 0.246094C30.9964 0.246094 32.6456 0.590942 34.0038 1.77326C35.5561 3.05412 36.1381 4.8276 36.0896 6.79814C36.0411 9.45837 34.6344 11.3304 32.1605 12.2171C32.112 12.1679 32.0635 12.2171 31.918 12.2664ZM27.6008 8.57161C28.2314 8.57161 28.862 8.57161 29.5411 8.57161C30.6082 8.52238 31.5299 7.5864 31.5299 6.50257C31.5299 5.22172 30.6568 4.28571 29.2501 4.28571C28.0373 4.23645 26.8247 4.28571 25.6605 4.28571C25.4179 4.28571 25.3209 4.38423 25.3209 4.63055C25.3209 5.81288 25.3209 7.0445 25.3209 8.22682C25.3209 8.52238 25.4179 8.57161 25.709 8.57161C26.3396 8.57161 26.9702 8.57161 27.6008 8.57161Z" fill="#0980D8"/>
<path d="M53.1642 0.0492666C56.3658 0.344848 61.168 3.74404 61.362 9.70493C61.5075 15.1239 57.0448 20.001 51.4665 19.9518C45.8881 19.9025 41.1343 15.1239 41.6679 8.76887C41.9105 6.2072 43.0747 4.08887 44.9665 2.41391C46.3732 1.18232 47.9739 0.344845 49.8172 0C49.8172 0.197054 49.8657 0.295578 49.8657 0.443369C49.8657 1.77349 49.8657 3.05434 49.8657 4.38445C49.8657 4.68004 49.7687 4.82783 49.5262 4.92636C47.5858 5.86237 46.2762 7.29099 46.1792 9.55711C46.0336 12.6607 48.265 14.8776 50.8359 15.2225C52.8247 15.4687 54.4254 14.7298 55.6866 13.2026C57.0934 11.5277 57.3358 8.32556 55.3471 6.25648C54.8135 5.66532 54.1829 5.2712 53.4553 4.92636C53.3097 4.87709 53.1157 4.63077 53.1157 4.48299C53.1157 3.10361 53.1157 1.67496 53.1642 0.295584C53.1157 0.197057 53.1642 0.147794 53.1642 0.0492666Z" fill="#0980D8"/>
<path d="M0.145524 0.195312C0.339554 0.195312 0.485078 0.195312 0.582092 0.195312C3.15299 0.195312 5.67538 0.195312 8.24626 0.195312C9.11941 0.195312 9.99257 0.293843 10.8172 0.490897C13.1455 0.983529 14.5523 2.46144 15.1343 4.72756C15.8619 7.33854 14.9403 9.94952 12.903 11.5259C11.9328 12.2156 10.8657 12.5605 9.70154 12.6097C8.14925 12.7083 6.59702 12.7083 5.04478 12.7083C4.89926 12.7083 4.75374 12.7083 4.55971 12.7083C4.55971 12.9053 4.55971 13.0531 4.55971 13.2009C4.55971 15.1714 4.55971 17.142 4.55971 19.1618C4.55971 19.5559 4.46269 19.7037 4.07463 19.6545C2.86194 19.6052 1.64926 19.6545 0.436568 19.6545C0.0970161 19.6545 0 19.5559 0 19.2111C0 14.728 0 10.2451 0 5.76211C0 4.08714 0 2.36291 0 0.687948C0.145523 0.540158 0.145524 0.392367 0.145524 0.195312ZM4.65672 8.57009C6.16046 8.57009 7.61567 8.61938 9.11942 8.57009C10.138 8.52086 11.0112 7.28924 10.8172 6.25474C10.6232 5.07242 9.84702 4.38271 8.63437 4.38271C7.66421 4.33345 6.74254 4.38271 5.7724 4.38271C5.38433 4.38271 5.04478 4.38271 4.65672 4.38271C4.65672 5.76209 4.65672 7.14149 4.65672 8.57009Z" fill="#0980D8"/>
<path d="M92.8923 19.6559C93.5227 18.7692 94.1044 17.9317 94.6384 17.1435C96.2873 14.7789 97.937 12.4142 99.5859 10.0496C99.7801 9.75393 99.8286 9.60619 99.5859 9.26133C97.5972 6.40403 95.6085 3.54675 93.6197 0.689463C93.5227 0.541672 93.4741 0.443148 93.3285 0.246094C93.5227 0.246094 93.6197 0.246094 93.7168 0.246094C95.2201 0.246094 96.6756 0.246094 98.1796 0.246094C98.4702 0.246094 98.6643 0.344627 98.81 0.590944C99.9257 2.2659 101.041 3.94086 102.157 5.61582C102.497 6.10845 102.497 6.05919 102.787 5.56655C103.903 3.89159 104.97 2.21664 106.086 0.541678C106.183 0.393887 106.377 0.246094 106.571 0.246094C108.22 0.246094 109.87 0.246094 111.616 0.246094C111.47 0.443148 111.373 0.590939 111.276 0.738729C108.22 5.17245 105.164 9.60619 102.109 13.9906C100.847 15.7641 99.5859 17.5376 98.3731 19.3111C98.1796 19.5574 97.9855 19.6559 97.6943 19.6559C96.1909 19.6559 94.5898 19.6559 92.8923 19.6559Z" fill="#0980D8"/>
<path d="M132.717 0.244579C132.717 0.737212 132.717 1.18059 132.717 1.67322C132.717 2.41217 132.717 3.2004 132.717 3.93935C132.717 4.23493 132.62 4.33345 132.328 4.33345C130.873 4.33345 129.418 4.33345 127.963 4.33345C127.768 4.33345 127.623 4.33345 127.381 4.33345C127.381 4.6783 127.381 4.92462 127.381 5.22021C127.381 9.851 127.381 14.4818 127.381 19.1618C127.381 19.5559 127.284 19.7037 126.895 19.6545C125.683 19.6545 124.47 19.6545 123.257 19.6545C122.918 19.6545 122.821 19.5559 122.821 19.2111C122.821 14.4325 122.821 9.70318 122.821 4.92462C122.821 4.33345 122.821 4.33345 122.238 4.33345C120.784 4.33345 119.28 4.33345 117.825 4.33345C117.485 4.33345 117.437 4.23493 117.437 3.93935C117.437 2.80628 117.437 1.67323 117.437 0.540163C117.437 0.343109 117.437 0.195312 117.728 0.195312C122.675 0.195312 127.623 0.195312 132.571 0.195312C132.571 0.195312 132.62 0.244579 132.717 0.244579Z" fill="#0980D8"/>
<path d="M151.586 0.244579C151.586 1.52543 151.586 2.80628 151.586 4.08713C151.586 4.18566 151.44 4.33345 151.343 4.33345C151.101 4.38271 150.858 4.33345 150.616 4.33345C146.638 4.33345 142.612 4.33345 138.634 4.33345C137.956 4.33345 138.053 4.38272 138.053 3.7423C138.053 2.65849 138.053 1.5747 138.053 0.540163C138.053 0.293846 138.1 0.195312 138.343 0.195312C142.709 0.195312 147.123 0.195312 151.489 0.195312C151.489 0.195312 151.538 0.244579 151.586 0.244579Z" fill="#0980D8"/>
<path d="M151.586 15.5682C151.586 16.6027 151.586 17.6865 151.586 18.7211C151.586 19.7064 151.586 19.7064 150.664 19.7064C146.638 19.7064 142.563 19.7064 138.537 19.7064C138.15 19.7064 138.052 19.6078 138.052 19.2137C138.101 18.1299 138.052 16.9969 138.052 15.9131C138.052 15.6667 138.101 15.5682 138.392 15.5682C142.757 15.5682 147.123 15.5682 151.489 15.5682C151.489 15.5189 151.489 15.5189 151.586 15.5682Z" fill="#0980D8"/>
<path d="M151.586 8.02821C151.586 9.30905 151.586 10.5407 151.586 11.7722C151.586 12.1663 151.343 12.0678 151.101 12.0678C147.56 12.0678 144.019 12.0678 140.478 12.0678C139.75 12.0678 139.071 12.0678 138.344 12.0678C138.053 12.0678 137.956 11.9693 137.956 11.6737C137.956 10.5407 137.956 9.40758 137.956 8.27455C137.956 7.97891 138.053 7.92969 138.295 7.92969C142.564 7.92969 146.784 7.92969 151.053 7.92969C151.247 7.97891 151.392 7.97891 151.586 8.02821Z" fill="#0980D8"/>
<path d="M74.0225 4.28571C74.0225 2.9556 74.0225 1.62548 74.0225 0.246094C78.4853 0.246094 82.9967 0.246094 87.5074 0.246094C87.5074 0.344621 87.5559 0.492406 87.5559 0.640197C87.5559 1.77326 87.5559 2.90633 87.5559 4.03939C87.5559 4.28572 87.5074 4.38423 87.2654 4.38423C82.8996 4.38423 78.4853 4.38423 74.1195 4.38423C74.1195 4.33497 74.071 4.33498 74.0225 4.28571Z" fill="#0980D8"/>
<path d="M74.0225 19.6061C74.0225 18.2759 74.0225 16.8965 74.0225 15.5664C78.4853 15.5664 82.9967 15.5664 87.5559 15.5664C87.5559 15.6649 87.6044 15.8127 87.6044 15.9606C87.6044 17.0936 87.6044 18.2266 87.6044 19.3597C87.6044 19.6061 87.5559 19.7046 87.3132 19.7046C82.9481 19.7046 78.5338 19.7046 74.1681 19.7046C74.1195 19.6553 74.071 19.6553 74.0225 19.6061Z" fill="#0980D8"/>
<path d="M80.7653 12.0678C78.6795 12.0678 76.5451 12.0678 74.4593 12.0678C74.1195 12.0678 74.0225 11.9693 74.0225 11.6245C74.0225 10.5407 74.0225 9.40757 74.0225 8.32377C74.0225 7.97891 74.1195 7.92969 74.4593 7.92969C78.6795 7.92969 82.8996 7.92969 87.1197 7.92969C87.5074 7.92969 87.6044 8.02821 87.6044 8.42229C87.6044 9.5061 87.6044 10.5899 87.6044 11.6737C87.6044 12.0186 87.4588 12.0678 87.1683 12.0678C84.9854 12.0678 82.8511 12.0678 80.7653 12.0678Z" fill="#0980D8"/>
<path d="M108.899 15.5195H103.709C104.533 16.7511 105.358 17.9827 106.183 19.2635C106.329 19.5099 106.522 19.6576 106.813 19.6084C108.317 19.6084 109.772 19.6084 111.276 19.6084C111.373 19.6084 111.519 19.6084 111.665 19.6084C111.567 19.4113 111.47 19.2635 111.373 19.165C110.597 17.9334 109.724 16.7511 108.899 15.5195Z" fill="#F7931E"/>
<path d="M51.3695 13.2502C53.0573 13.2502 54.4255 11.8606 54.4255 10.1466C54.4255 8.43248 53.0573 7.04297 51.3695 7.04297C49.6817 7.04297 48.3135 8.43248 48.3135 10.1466C48.3135 11.8606 49.6817 13.2502 51.3695 13.2502Z" fill="#F7931E"/>
</g>
<defs>
<clipPath id="clip0_3429_28367">
<rect width="197" height="20" fill="white"/>
</clipPath>
</defs>
</svg>
